<?xml version="1.0" encoding="utf-8"?>
<!-- Generator: Adobe Illustrator 28.2.0, SVG Export Plug-In . SVG Version: 6.00 Build 0)  -->
<svg version="1.1" xmlns="http://www.w3.org/2000/svg" xmlns:xlink="http://www.w3.org/1999/xlink" x="0px" y="0px"
	 viewBox="0 0 1366 768" style="enable-background:new 0 0 1366 768;" xml:space="preserve">
<style type="text/css">
	
		.st0{fill-rule:evenodd;clip-rule:evenodd;fill:#FFFFFF;stroke:#000000;stroke-linecap:round;stroke-linejoin:round;stroke-miterlimit:10;}
</style>
<g id="Layer_8">
	<path class="st0" d="M301.2,172.5c15.6-15.6,40.9-15.6,56.6,0c0,0,0.1,0.1,0.1,0.1c8.3,8.2,12.9,19.4,12.9,31s-4.6,22.8-12.9,31
		c0,0-0.1,0.1-0.1,0.1c-15.6,15.6-40.9,15.6-56.6,0c0,0-0.1-0.1-0.1-0.1c-8.3-8.2-12.9-19.4-12.9-31s4.6-22.8,12.9-31
		C301.2,172.6,301.2,172.6,301.2,172.5z"/>
</g>
<g id="Layer_7">
	<path class="st0" d="M710.3,218.5c0-16.7-13.5-30.2-30.2-30.2h0c-16.7,0-30.2,13.5-30.2,30.2v189.4c0,0,0,0,0,0h60.4c0,0,0,0,0,0
		V218.5z"/>
</g>
<g id="Layer_6">
	<path class="st0" d="M745.1,460c-20.4,25.2-24.5,59.9-10.5,89.2c14,29.3,43.5,47.9,76,47.9h328.3c10.1,0,19.3-5.8,23.6-14.9
		c4.3-9.1,3.1-19.9-3.3-27.7c-11.4-14.1-24.5-30.4-37.6-46.5c-42.9-53.1-107.5-84-175.8-84H820.4C791.1,424,763.5,437.3,745.1,460
		C745.1,460,745.1,460,745.1,460z"/>
</g>
<g id="Layer_5">
	<path class="st0" d="M131.9,467.2c41.7-36.9,104.4-36.9,146.2,0c29.6,26.2,63.6,56.3,92.4,81.8c10.3,9.1,13.9,23.7,9,36.6
		c-4.9,12.9-17.3,21.4-31.1,21.4H61.4c-13.8,0-26.1-8.5-31-21.4c-4.9-12.9-1.3-27.4,9-36.6C68.2,523.6,102.3,493.5,131.9,467.2z"/>
</g>
<g id="Layer_4">
	<path class="st0" d="M775.2,403.6c20.4,25.2,24.5,59.9,10.5,89.2c-14,29.3-43.5,47.9-76,47.9H387.1c-11.1,0-21.3-6.4-26.1-16.5
		c-4.8-10.1-3.4-22,3.6-30.6c10.5-13,22.3-27.6,33.9-42c42.9-53.1,107.5-84,175.8-84c43.5,0,91.4,0,125.5,0
		C729.1,367.6,756.8,380.8,775.2,403.6C775.2,403.6,775.2,403.6,775.2,403.6z"/>
</g>
<g id="Layer_3">
	<ellipse class="st0" cx="1234.6" cy="461.6" rx="103.2" ry="101"/>
</g>
<g id="Layer_2">
	<ellipse class="st0" cx="326.3" cy="362.5" rx="103.2" ry="101"/>
</g>
</svg>
